<?xml version="1.0" encoding="utf-8"?>
<!-- Generator: Adobe Illustrator 18.1.1, SVG Export Plug-In . SVG Version: 6.00 Build 0)  -->
<!DOCTYPE svg PUBLIC "-//W3C//DTD SVG 1.1//EN" "http://www.w3.org/Graphics/SVG/1.1/DTD/svg11.dtd">
<svg version="1.1" id="Layer_1" xmlns="http://www.w3.org/2000/svg" xmlns:xlink="http://www.w3.org/1999/xlink" x="0px" y="0px"
	 viewBox="0 0 119 111" enable-background="new 0 0 119 111" xml:space="preserve">
<path fill="#FFFFFF" d="M85.7,64.6c0,1.5-1.1,1.8-2.6,1.8l-31.3,3.2c-1.5,0-1.7-2.7-2-4.2l-0.4-3.2c0-1.5,1.7-1.1,3.1-1.1l30.6,0.5
	c1.5,0,2.7,1.2,2.7,2.7L85.7,64.6z"/>
<path fill="#FFFFFF" d="M97.6,55.7c-2.8-3.3-6.5-4.6-10.8-4c-1.2,0.2-2.3,0.6-3.6,0.9c-0.5-1.5-1.8-2.7-2-4.4c0-0.1-0.2-0.2-0.3-0.2
	c-0.5-0.1-0.9-0.1-1.4-0.1c-5.4,0-10.9,0-16.3,0c-0.3,0-0.6,0-0.9,0c0.1-0.2,0.1-0.3,0.1-0.5c1-2.2,1.9-4.3,2.9-6.5
	c0.2-0.4,0.3-0.8,0.4-1.2c0-0.2-0.1-0.5-0.2-0.5c-0.2,0-0.4,0.1-0.6,0.2c-0.1,0.1-0.2,0.3-0.2,0.4c-1.1,2.4-2.2,4.9-3.3,7.3
	c-0.2,0.6-0.6,0.8-1.2,0.8c-7.4,0-14.9,0-22.3,0h-0.8c0-0.2,0.1-0.3,0.1-0.4c0.7-2.2,1.4-4.4,2.1-6.6c0.3-0.8,0.5-1.7,0.7-2.6
	c0-0.2-0.2-0.4-0.2-0.7c-0.2,0.1-0.4,0.2-0.6,0.4c-0.1,0.1-0.2,0.4-0.2,0.6c-1.2,3.9-2.5,7.7-3.7,11.6c-0.2,0.6-0.4,0.7-1,0.6
	c-4.9-0.8-8.9,0.9-11.8,4.9c-3.8,5.2-2.8,12.2,2.2,16.3c0.1,0.1,0.1,0.1,0.2,0.2c0.1,0.1,0.1,0.1,0.2,0.2c0.1,0.1,0.2,0.2,0.3,0.2
	c0.1,0.1,0.3,0.2,0.4,0.3c0.2,0.1,0.3,0.2,0.5,0.3c0,0,0,0,0.1,0c0.1,0,0.2,0.1,0.4,0.2c0.1,0,0.2,0.1,0.3,0.1
	c2.5,1.2,5.1,1.5,7.8,0.9c8.2-1.7,12.1-11.2,7.6-18.4c-0.1-0.2-0.2-0.4-0.4-0.6c0.2,0.1,0.2,0.1,0.3,0.1c2.1,1.8,4.3,3.6,6.6,5.5
	c0.2,0.2,0.3,0.4,0.4,0.7c0.3,2.4,0.5,4.9,1.3,7.3c0.2,0.6,0.4,0.7,0.9,0.6c1.6-0.2,3.2-0.4,4.8-0.6c6.4-0.9,12.9-1.8,19.3-2.7
	c1-0.1,1-0.1,1.3,0.8c1.8,6.1,7.8,9.7,13.9,8.5C100,73.7,103.7,62.8,97.6,55.7z M97.1,56.9C96,57.6,95,58.3,93.9,59
	c-0.8,0.5-1.6,0.9-2.3,1.5c-0.6,0.4-1.1,0.5-1.6-0.1c0.9-2.2,1.9-4.5,2.8-6.8C94.5,54.3,96,55.4,97.1,56.9z M90.9,64.7
	c-0.5,1.2-2,1.8-3.2,1.4c-1.1-0.4-1.7-1.3-1.7-2.4c0-0.1,0-0.2,0-0.3c0-0.8,0.5-1.5,1.2-1.9c0.7-0.5,2-0.6,2.6-0.2
	C90.9,62,91.4,63.5,90.9,64.7z M92.3,53.3c-0.9,2.3-1.9,4.6-2.8,6.7c-0.8,0.1-1.5,0.1-2.1,0.1c-0.1,0-0.3-0.1-0.4-0.2
	c-1.1-2.1-2.1-4.1-3.2-6.3C86.6,52.4,89.4,52.3,92.3,53.3z M84.1,56.7c0.6,1.2,1.2,2.4,1.9,3.6c0.2,0.3,0.2,0.6-0.1,0.9
	c-0.2,0.2-0.4,0.5-0.7,0.8c-2.1-1.2-4.2-2.4-6.4-3.6c1-1.7,2.3-3.1,4-4.1C83.3,55.1,83.7,55.9,84.1,56.7z M61.6,49.3
	c0.2-0.4,0.3-0.6,0.8-0.6c5.5,0,11,0,16.6,0c0.1,0,0.3,0,0.5,0c-0.7,1.3-1.4,2.5-2.1,3.7c-1.6,2.8-3.2,5.7-4.8,8.5
	c-0.3,0.6-0.7,0.8-1.3,0.7c-4.8-0.1-9.6-0.2-14.4-0.3c-0.2,0-0.3,0-0.6-0.1c0.4-0.9,0.8-1.8,1.2-2.7C58.8,55.5,60.2,52.4,61.6,49.3z
	 M36.4,50.3c0.5,0.4,1,0.9,1.5,1.3c0,0,0,0.1-0.1,0.1c-0.5-0.2-1-0.4-1.5-0.6c-0.1-0.1-0.1-0.4-0.2-0.7
	C36.3,50.4,36.3,50.4,36.4,50.3z M34.8,51.7c-0.4,1.4-0.9,2.8-1.3,4.1c-0.2,0.8-0.5,1.5-0.7,2.3c-0.1,0.5-0.3,0.7-0.8,0.8
	c-0.4,0-0.8,0.2-1.2,0.3c-1.1-2.1-2.2-4.3-3.3-6.5C29.7,51.5,32.1,51.2,34.8,51.7z M35,62.5c0,1.4-1.1,2.6-2.4,2.6
	c-1.6,0-2.8-1.1-2.8-2.6c0-1.5,1.1-2.6,2.7-2.6C33.9,59.9,35,61.1,35,62.5z M27,52.9c1.1,2.1,2.1,4.1,3.2,6.2c0,0,0,0,0,0.1
	c0,0.2,0,0.5-0.1,0.5c-0.6,0.2-0.6,1.5-1.4,1.2c-2.2-0.7-4.3-1.6-6.5-2.4C22.8,56.3,25,53.8,27,52.9z M22,58.9
	c2.3,0.9,4.6,1.7,6.9,2.5c0,0.6,0,1.1,0,1.6c0,0.1-0.2,0.3-0.3,0.4c-2.2,0.7-4.4,1.4-6.7,2.1C21.2,63.2,21.2,61.1,22,58.9z
	 M21.9,65.9c2.4-0.7,4.7-1.5,6.9-2.2c0.6,0.7,1.2,1.4,1.8,2.1c-0.7,2.2-1.4,4.5-2.2,6.9C25.2,71.5,23.1,69.2,21.9,65.9z M28.8,72.9
	c0.8-2.3,1.5-4.7,2.2-6.9h2.6c1.1,2.1,2.2,4.2,3.4,6.5C34.3,73.7,31.6,73.8,28.8,72.9z M37.4,72.3c-1.1-2.2-2.2-4.4-3.3-6.5
	c0.5-0.6,1-1.2,1.4-1.7C35.6,64,35.8,64,36,64c2.2,0.8,4.4,1.6,6.7,2.5C41.6,69.1,39.8,71,37.4,72.3z M42.8,66.1
	c-2.3-0.9-4.6-1.7-6.8-2.5c-0.1-0.9-0.2-1.8-0.3-2.7c2.1-0.9,4.4-1.9,6.7-2.9C43.5,60.6,43.7,63.3,42.8,66.1z M42.2,57.5
	c-1.9,0.8-3.8,1.6-5.6,2.5c-0.8,0.4-1.2,0.4-2-0.2c-0.9-0.7-1-1.2-0.6-2.2c0.6-1.7,1.1-3.4,1.7-5.2c0-0.1,0.1-0.3,0.2-0.4
	C38.7,53,40.8,54.8,42.2,57.5z M37.2,49.6c-0.2-0.2-0.3-0.4-0.4-0.7c0.3-0.1,0.5-0.3,0.8-0.3c7.4,0,14.8,0,22.2,0h0.9
	c-0.8,1.8-1.5,3.4-2.2,5c-1,2.3-2.1,4.6-3.1,7c-0.2,0.5-0.4,0.8-1,0.7c-0.4-0.1-0.7-0.1-1.1,0c-1.6,0.2-2.7-0.4-3.9-1.4
	C45.4,56.5,41.3,53.1,37.2,49.6z M76.4,65c-8.3,1.2-16.7,2.3-25,3.5c-0.3-2.1-0.6-4.1-0.9-6.3c1,0.8,1.8,1.5,2.7,2.2
	c0.1,0.1,0.3,0.3,0.4,0.3c0.2,0,0.5,0,0.7,0c0-0.2,0-0.6-0.1-0.7c-0.5-0.5-1.1-1-1.6-1.6c7.9,0.1,15.8,0.3,23.8,0.4V65z M76.5,61.8
	h-3.2c2.4-4.2,4.6-8.2,7-12.4c0.7,1.4,1.3,2.6,2,3.9C79.1,55.2,77.2,58,76.5,61.8z M78.6,58.7c1.9,1.1,3.7,2.1,5.6,3.2h-6.7
	C77.9,60.8,78.2,59.8,78.6,58.7z M77.5,62.9h7.3c0,0.3,0,0.6,0,0.9c-2.5,0.3-4.9,0.7-7.4,1V62.9z M86.5,74.4
	c-3.7-0.7-7.3-3.3-8.6-7.8c0.6-0.2,1.2-0.4,1.8-0.5c1.6-0.4,3.3-0.8,4.9-1.2c0.4-0.1,0.6,0.1,0.8,0.4c0.4,0.5,0.9,0.9,1.3,1.4
	c0.2,0.2,0.4,0.5,0.4,0.7c-0.1,2-0.3,4-0.5,6C86.5,73.6,86.5,74.1,86.5,74.4z M86.9,74.5c0.2-2.3,0.4-5.1,0.6-7.3
	c0.7-0.1,1.4-0.1,2-0.1c0.2,0,0.4,0.1,0.5,0.3c1.1,2,2.1,4.1,3.2,6.2C91.3,74.5,89.1,74.8,86.9,74.5z M93.6,73.4
	c-1.1-2.2-2.3-4.4-3.3-6.5c0.5-0.6,0.9-1.1,1.4-1.6c0.1-0.1,0.3-0.2,0.4-0.2c2.3,0.1,4.7,0.3,7,0.5c0.1,0,0.1,0.1,0.2,0.1
	C98.5,69.1,96.7,71.7,93.6,73.4z M91.9,64.7c0.2-1.3,0-2.4-0.8-3.5c2.1-1.3,4.2-2.6,6.3-4c1.7,2.4,2.3,5,2,8
	C96.9,65,94.5,64.8,91.9,64.7z"/>
<line fill="none" stroke="#FFFFFF" stroke-miterlimit="10" x1="79.4" y1="50" x2="84.3" y2="41.3"/>
<ellipse transform="matrix(9.049970e-02 -0.9959 0.9959 9.049970e-02 18.3507 100.1137)" fill="#FFFFFF" cx="64" cy="40" rx="1.1" ry="5.2"/>
<line fill="none" x1="77.9" y1="48.2" x2="62.1" y2="48.1"/>
<line fill="none" x1="40" y1="48.3" x2="55.9" y2="48.3"/>
<path fill="#FFFFFF" d="M36.3,62.4c0,2.2-1.8,4-3.9,4c-2.2,0-3.9-1.8-3.9-4c0-2.2,1.8-4,3.9-4C34.6,58.4,36.3,60.2,36.3,62.4z"/>
<path fill="#FFFFFF" d="M92.3,63.8c0,2.2-1.8,4-3.9,4c-2.2,0-3.9-1.8-3.9-4c0-2.2,1.8-4,3.9-4C90.5,59.8,92.3,61.6,92.3,63.8z"/>
<path fill="none" stroke="#FFFFFF" stroke-miterlimit="10" d="M39.1,31.4c-3.1,8.2,4.1,6.9,7.3,4.9"/>
<path fill="#FFFFFF" d="M87.1,42c-0.1,0.6-2.4,0.9-5.3,0.7c-2.8-0.3-5.1-1-5-1.6c0.1-0.6,2.4-0.9,5.2-0.7
	C84.9,40.7,87.2,41.4,87.1,42z"/>
</svg>
